<?xml version="1.0" encoding="utf-8"?>
<!-- Generator: Adobe Illustrator 17.0.0, SVG Export Plug-In . SVG Version: 6.00 Build 0)  -->
<!DOCTYPE svg PUBLIC "-//W3C//DTD SVG 1.1//EN" "http://www.w3.org/Graphics/SVG/1.1/DTD/svg11.dtd">
<svg version="1.1" id="Layer_1" xmlns="http://www.w3.org/2000/svg" xmlns:xlink="http://www.w3.org/1999/xlink" x="0px" y="0px"
	 width="105px" height="106px" viewBox="0 0 105 106" enable-background="new 0 0 105 106" xml:space="preserve">
<path fill-rule="evenodd" clip-rule="evenodd" fill="#008BC1" d="M53.5,3C81.39,3,104,25.61,104,53.5C104,81.39,81.39,104,53.5,104
	S3,81.39,3,53.5C3,25.61,25.61,3,53.5,3z"/>
<path fill-rule="evenodd" clip-rule="evenodd" fill="#FFFFFF" d="M67.304,50.541l21.754-14.257v36.085L67.304,50.541z
	 M18.108,33.508h70.773L53.495,56.701L18.108,33.508z M17.838,72.463l0.06-36.202l21.786,14.28L17.838,72.463z M53.486,59.587v0.011
	l0.009-0.006l0.009,0.006v-0.011l12.058-7.904l20.855,20.926H20.573l20.854-20.926L53.486,59.587z"/>
</svg>
