<?xml version="1.0" encoding="utf-8"?>
<!-- Generator: Adobe Illustrator 17.0.0, SVG Export Plug-In . SVG Version: 6.00 Build 0)  -->
<!DOCTYPE svg PUBLIC "-//W3C//DTD SVG 1.1//EN" "http://www.w3.org/Graphics/SVG/1.1/DTD/svg11.dtd">
<svg version="1.1" id="Layer_1" xmlns="http://www.w3.org/2000/svg" xmlns:xlink="http://www.w3.org/1999/xlink" x="0px" y="0px"
	 width="114px" height="114px" viewBox="0 0 114 114" enable-background="new 0 0 114 114" xml:space="preserve">
<path fill-rule="evenodd" clip-rule="evenodd" fill="#008BC1" d="M57,7c27.614,0,50,22.386,50,50c0,27.614-22.386,50-50,50
	S7,84.614,7,57C7,29.386,29.386,7,57,7z"/>
<path fill-rule="evenodd" clip-rule="evenodd" fill="#FFFFFF" d="M84.731,54.258c-0.508-0.983-1.898-2.104-1.898-2.104L77.094,37.2
	h-0.001c-1.19-2.833-4.697-4.326-6.226-4.326H42.729c-1.529,0-5.035,1.493-6.226,4.326l-5.74,14.954c0,0-1.391,1.121-1.899,2.104
	c-0.508,0.983-1.064,1.859-1.064,8.489c0,6.464,1.33,8.764,2.925,9.56L31.985,73v6.002c0,1.948,0.474,2.526,2.374,2.526h4.261
	c1.9,0,2.373-0.578,2.373-2.526V73h31.608v6.002c0,1.948,0.475,2.526,2.373,2.526h4.263c1.898,0,2.373-0.578,2.373-2.526V73
	l1.259-0.693c1.595-0.796,2.925-3.096,2.925-9.56C85.796,56.116,85.241,55.241,84.731,54.258z M39.023,65.862
	c-2.041,0-3.702-1.659-3.702-3.696c0-2.037,1.661-3.695,3.702-3.695c2.04,0,3.701,1.658,3.701,3.695
	C42.723,64.203,41.062,65.862,39.023,65.862z M74.713,65.862c-2.04,0-3.701-1.659-3.701-3.696c0-2.037,1.661-3.695,3.701-3.695
	c2.041,0,3.702,1.658,3.702,3.695C78.415,64.203,76.755,65.862,74.713,65.862z M78.832,52.154H34.764c0,0-1.052,0.099-0.731-1.03
	c0.269-0.951,4.056-10.34,4.851-12.919c0.322-0.887,2.152-2.924,4.624-2.773h26.581c2.472-0.151,4.302,1.885,4.623,2.773
	c0.797,2.578,4.582,11.967,4.853,12.919C79.883,52.253,78.832,52.154,78.832,52.154z"/>
</svg>
