<?xml version="1.0" encoding="utf-8"?>
<!-- Generator: Adobe Illustrator 17.0.0, SVG Export Plug-In . SVG Version: 6.00 Build 0)  -->
<!DOCTYPE svg PUBLIC "-//W3C//DTD SVG 1.1//EN" "http://www.w3.org/Graphics/SVG/1.1/DTD/svg11.dtd">
<svg version="1.1" id="Layer_1" xmlns="http://www.w3.org/2000/svg" xmlns:xlink="http://www.w3.org/1999/xlink" x="0px" y="0px"
	 width="105px" height="106px" viewBox="0 0 105 106" enable-background="new 0 0 105 106" xml:space="preserve">
<path fill-rule="evenodd" clip-rule="evenodd" fill="#008BC1" d="M53.5,3C81.39,3,104,25.61,104,53.5c0,27.89-22.61,50.5-50.5,50.5
	C25.61,104,3,81.39,3,53.5C3,25.61,25.61,3,53.5,3z"/>
<path fill-rule="evenodd" clip-rule="evenodd" fill="#FFFFFF" d="M27.491,37.697c3.614,0,6.543,3.442,6.543,7.687
	c0,4.245-2.929,7.687-6.543,7.687s-6.543-3.442-6.543-7.687C20.949,41.139,23.878,37.697,27.491,37.697z"/>
<path fill-rule="evenodd" clip-rule="evenodd" fill="#FFFFFF" d="M21.307,53.052h12.338c3.097,0,5.608,2.868,5.608,6.406V73.55
	c0,3.538-2.511,6.406-5.608,6.406H21.307c-3.097,0-5.608-2.868-5.608-6.406V59.457C15.699,55.919,18.209,53.052,21.307,53.052z"/>
<path fill-rule="evenodd" clip-rule="evenodd" fill="#008BC1" d="M10.157,65.392h35.001l-0.667,26.105L13,80L10.157,65.392z"/>
<path fill-rule="evenodd" clip-rule="evenodd" fill="#FFFFFF" d="M79.444,37.697c3.614,0,6.543,3.442,6.543,7.687
	c0,4.245-2.929,7.687-6.543,7.687s-6.543-3.442-6.543-7.687C72.901,41.139,75.83,37.697,79.444,37.697z"/>
<path fill="#FFFFFF" d="M73.259,53.052h12.338c3.097,0,5.608,2.868,5.608,6.406V73.55c0,3.538-2.511,6.406-5.608,6.406H73.259
	c-3.098,0-5.608-2.868-5.608-6.406V59.457C67.651,55.919,70.162,53.052,73.259,53.052z"/>
<path fill="#008BC1" d="M61.737,65.392h35.001L87,87l-24.578,8.536L61.737,65.392z"/>
<path fill-rule="evenodd" clip-rule="evenodd" fill="#FFFFFF" d="M53.688,37.912c3.613,0,6.543,3.441,6.543,7.687
	c0,4.246-2.929,7.687-6.543,7.687c-3.613,0-6.543-3.441-6.543-7.687C47.146,41.354,50.075,37.912,53.688,37.912z"/>
<path fill="#FFFFFF" d="M47.504,53.267h12.338c3.097,0,5.608,2.868,5.608,6.406v14.093c0,3.538-2.511,6.406-5.608,6.406H47.504
	c-3.097,0-5.608-2.868-5.608-6.406V59.672C41.896,56.135,44.406,53.267,47.504,53.267z"/>
<path fill-rule="evenodd" clip-rule="evenodd" fill="#008BC1" d="M38.035,65.392h34.022v33.052H38.035V65.392z"/>
</svg>
