<?xml version="1.0" encoding="utf-8"?>
<!-- Generator: Adobe Illustrator 17.0.0, SVG Export Plug-In . SVG Version: 6.00 Build 0)  -->
<!DOCTYPE svg PUBLIC "-//W3C//DTD SVG 1.1//EN" "http://www.w3.org/Graphics/SVG/1.1/DTD/svg11.dtd">
<svg version="1.1" id="Layer_1" xmlns="http://www.w3.org/2000/svg" xmlns:xlink="http://www.w3.org/1999/xlink" x="0px" y="0px"
	 width="114px" height="114px" viewBox="0 0 114 114" enable-background="new 0 0 114 114" xml:space="preserve">
<path fill-rule="evenodd" clip-rule="evenodd" fill="#008BC1" d="M57,7c27.614,0,50,22.386,50,50c0,27.614-22.386,50-50,50
	S7,84.614,7,57C7,29.386,29.386,7,57,7z"/>
<path fill="#FFFFFF" d="M57.194,87.419L41.085,51.447h32.218L57.194,87.419z"/>
<path fill-rule="evenodd" clip-rule="evenodd" fill="#FFFFFF" d="M57.194,26.716c9.736,0,17.628,7.801,17.628,17.424
	c0,9.623-7.892,17.424-17.628,17.424S39.566,53.763,39.566,44.14C39.566,34.517,47.458,26.716,57.194,26.716z"/>
<path fill-rule="evenodd" clip-rule="evenodd" fill="#008BC1" d="M57.148,33.028c6.252,0,11.32,5.094,11.32,11.379
	c0,6.285-5.068,11.379-11.32,11.379s-11.32-5.094-11.32-11.379C45.829,38.122,50.897,33.028,57.148,33.028z"/>
</svg>
