<?xml version="1.0" encoding="utf-8"?>
<!-- Generator: Adobe Illustrator 17.0.0, SVG Export Plug-In . SVG Version: 6.00 Build 0)  -->
<!DOCTYPE svg PUBLIC "-//W3C//DTD SVG 1.1//EN" "http://www.w3.org/Graphics/SVG/1.1/DTD/svg11.dtd">
<svg version="1.1" id="Layer_1" xmlns="http://www.w3.org/2000/svg" xmlns:xlink="http://www.w3.org/1999/xlink" x="0px" y="0px"
	 width="108px" height="108px" viewBox="0 0 108 108" enable-background="new 0 0 108 108" xml:space="preserve">
<path fill-rule="evenodd" clip-rule="evenodd" fill="#008BC1" d="M54,4c27.614,0,50,22.386,50,50c0,27.614-22.386,50-50,50
	S4,81.614,4,54C4,26.386,26.386,4,54,4z"/>
<path fill-rule="evenodd" clip-rule="evenodd" fill="#FFFFFF" d="M85.106,43.749c-0.03-1.263-0.312-6.684-2.937-7.688
	c-5.405-2.067-18.76-3.716-27.793-3.716c-9.035,0-22.39,1.649-27.795,3.716c-2.628,1.006-2.907,6.434-2.936,7.692
	c-0.044,0.367-0.041,0.728,0.022,1.052l0.514,2.574c0.273,1.41,1.636,2.33,3.047,2.057l11.851-2.294
	c1.409-0.272,2.331-1.635,2.059-3.044l-0.616-3.178c1.093-0.152,2.19-0.296,3.275-0.428l-0.354,5.142
	c0,0-17.676,9.416-17.676,12.917c0,3.499,0,17.097,0,17.097h28.61h28.609c0,0,0-13.712,0-17.097
	c0-3.385-17.675-12.917-17.675-12.917l-0.354-5.142c1.086,0.132,2.182,0.276,3.275,0.428l-0.616,3.178
	c-0.273,1.409,0.649,2.772,2.058,3.044l11.851,2.294c1.41,0.272,2.774-0.648,3.047-2.057l0.514-2.574
	C85.146,44.48,85.15,44.118,85.106,43.749z M54.376,39.703c1.099,0,5.311,0.196,6.56,0.355c0-0.023-0.408,5.081-0.418,5.065h-6.142
	h-6.143l-0.38-5.069C50.235,39.835,52.467,39.703,54.376,39.703z M54.376,68.635c-4.563,0-8.263-3.439-8.263-7.681
	c0-4.242,3.699-7.681,8.263-7.681c4.563,0,8.263,3.439,8.263,7.681C62.639,65.196,58.939,68.635,54.376,68.635z"/>
</svg>
